# xmcd
# 
# Track frame offsets:
#     183
#     17258
#     32728
#     52680
#     72558
#     92570
#     107298
#     125535
#     153510
# 
# Disc length: 2485
# 
# Revision: 9
# Processed by: cddbd v1.5.2PL0 Copyright (c) Steve Scherf et al.
# Submitted via: fre:ac v1.0.17
# 
DISCID=6209b309
DTITLE=Depeche Mode - People Are People
DYEAR=1984
DGENRE=Pop
TTITLE0=People Are People
TTITLE1=Now This Is Fun
TTITLE2=Love In Itself
TTITLE3=Work Hard
TTITLE4=Told You So
TTITLE5=Get The Balance Right
TTITLE6=Leave In Silence
TTITLE7=Pipeline
TTITLE8=Everything Counts
EXTD=YEAR: 1984
EXTT0=
EXTT1=
EXTT2=
EXTT3=
EXTT4=
EXTT5=
EXTT6=
EXTT7=
EXTT8=
PLAYORDER=
